<?xml version="1.0" encoding="UTF-8"?>
  <svg xmlns="http://www.w3.org/2000/svg" xmlns:xlink="http://www.w3.org/1999/xlink" width="30" height="30" viewBox="0 0 30 30" version="1.1">
  <g id="surface1">
    <path style=" stroke:none;fill-rule:nonzero;fill:rgb(16.078432%,9.019608%,18.039216%);fill-opacity:1;" d="M 0 0 C 9.898438 0 19.800781 0 30 0 C 30 9.898438 30 19.800781 30 30 C 20.101562 30 10.199219 30 0 30 C 0 20.101562 0 10.199219 0 0 Z M 0 0 "/>
    <path style=" stroke:none;fill-rule:nonzero;fill:rgb(88.627452%,27.843139%,23.529412%);fill-opacity:1;" d="M 16.933594 5.066406 C 17.726562 5.410156 18.207031 6.09375 18.660156 6.808594 C 19.007812 7.761719 18.96875 9.054688 18.589844 9.992188 C 17.953125 11.136719 16.910156 12.042969 15.992188 12.964844 C 15.863281 13.09375 15.734375 13.222656 15.609375 13.347656 C 15.339844 13.617188 15.074219 13.882812 14.808594 14.148438 C 14.46875 14.492188 14.128906 14.832031 13.789062 15.171875 C 13.527344 15.4375 13.261719 15.703125 13 15.964844 C 12.8125 16.152344 12.628906 16.335938 12.441406 16.523438 C 11.839844 17.125 11.246094 17.664062 10.535156 18.132812 C 9.765625 17.199219 9.246094 16.355469 9.296875 15.113281 C 9.484375 13.53125 10.355469 12.535156 11.453125 11.449219 C 11.539062 11.363281 11.625 11.277344 11.710938 11.191406 C 11.890625 11.011719 12.070312 10.832031 12.25 10.65625 C 12.523438 10.382812 12.796875 10.113281 13.070312 9.839844 C 13.242188 9.664062 13.417969 9.492188 13.59375 9.316406 C 13.675781 9.234375 13.753906 9.15625 13.839844 9.074219 C 14.300781 8.617188 14.773438 8.1875 15.273438 7.773438 C 16.054688 7.082031 16.496094 5.992188 16.933594 5.066406 Z M 16.933594 5.066406 "/>
    <path style=" stroke:none;fill-rule:nonzero;fill:rgb(90.980393%,34.901962%,24.705882%);fill-opacity:1;" d="M 19.332031 11.867188 C 20.070312 12.523438 20.476562 13.128906 20.59375 14.121094 C 20.605469 14.316406 20.609375 14.511719 20.617188 14.707031 C 20.621094 14.800781 20.625 14.890625 20.632812 14.984375 C 20.628906 16.429688 19.675781 17.460938 18.710938 18.425781 C 18.480469 18.652344 18.25 18.875 18.015625 19.101562 C 17.863281 19.253906 17.707031 19.40625 17.554688 19.558594 C 16.859375 20.242188 16.15625 20.910156 15.414062 21.546875 C 14.296875 22.515625 13.660156 23.609375 13.066406 24.933594 C 12.285156 24.59375 11.695312 23.894531 11.339844 23.125 C 10.957031 21.902344 11.046875 20.699219 11.625 19.578125 C 12.113281 18.8125 12.78125 18.199219 13.429688 17.566406 C 13.582031 17.414062 13.734375 17.261719 13.890625 17.109375 C 14.289062 16.710938 14.691406 16.3125 15.09375 15.917969 C 15.425781 15.59375 15.75 15.269531 16.078125 14.941406 C 16.46875 14.554688 16.863281 14.164062 17.253906 13.777344 C 17.328125 13.703125 17.402344 13.628906 17.480469 13.550781 C 17.691406 13.34375 17.902344 13.136719 18.113281 12.925781 C 18.234375 12.808594 18.355469 12.691406 18.476562 12.570312 C 18.75 12.3125 19.027344 12.085938 19.332031 11.867188 Z M 19.332031 11.867188 "/>
    <path style=" stroke:none;fill-rule:nonzero;fill:rgb(93.725491%,44.705883%,25.882354%);fill-opacity:1;" d="M 12.898438 19.855469 C 13.070312 19.855469 13.070312 19.855469 13.246094 19.855469 C 13.613281 19.855469 13.980469 19.855469 14.351562 19.859375 C 14.597656 19.859375 14.847656 19.859375 15.097656 19.859375 C 15.710938 19.863281 16.320312 19.863281 16.933594 19.867188 C 16.679688 20.425781 16.296875 20.765625 15.839844 21.167969 C 14.574219 22.320312 13.785156 23.382812 13.066406 24.933594 C 12.285156 24.59375 11.695312 23.894531 11.339844 23.125 C 11.070312 22.289062 11.011719 21.035156 11.320312 20.214844 C 11.679688 19.691406 12.328125 19.851562 12.898438 19.855469 Z M 12.898438 19.855469 "/>
    <path style=" stroke:none;fill-rule:nonzero;fill:rgb(86.274511%,18.82353%,22.352941%);fill-opacity:1;" d="M 16.933594 5.066406 C 17.726562 5.410156 18.207031 6.09375 18.660156 6.808594 C 18.945312 7.570312 18.871094 8.535156 18.800781 9.332031 C 18.710938 9.464844 18.625 9.597656 18.535156 9.734375 C 18.535156 9.644531 18.535156 9.558594 18.535156 9.464844 C 17.867188 9.460938 17.207031 9.460938 16.542969 9.464844 C 16.316406 9.464844 16.089844 9.464844 15.863281 9.460938 C 14.546875 9.410156 14.546875 9.410156 13.339844 9.847656 C 13.082031 10.105469 12.867188 10.355469 12.667969 10.667969 C 12.578125 10.621094 12.492188 10.578125 12.398438 10.535156 C 12.734375 10.195312 13.070312 9.855469 13.410156 9.515625 C 13.550781 9.375 13.550781 9.375 13.691406 9.230469 C 14.128906 8.789062 14.566406 8.363281 15.042969 7.964844 C 15.949219 7.207031 16.4375 6.117188 16.933594 5.066406 Z M 16.933594 5.066406 "/>
    <path style=" stroke:none;fill-rule:nonzero;fill:rgb(84.313726%,14.901961%,21.568628%);fill-opacity:1;" d="M 16.933594 5.066406 C 17.359375 5.253906 17.632812 5.464844 17.941406 5.808594 C 18.019531 5.890625 18.097656 5.972656 18.175781 6.058594 C 18.398438 6.398438 18.398438 6.398438 18.800781 7.601562 C 17.789062 7.601562 16.777344 7.601562 15.734375 7.601562 C 15.734375 7.15625 15.792969 7.0625 16.035156 6.707031 C 16.378906 6.179688 16.660156 5.636719 16.933594 5.066406 Z M 16.933594 5.066406 "/>
  </g>
</svg>
